<svg width="1015" height="99" viewBox="0 0 1015 99" fill="none" xmlns="http://www.w3.org/2000/svg">
<path d="M1.34811 83.2908C2.07889 83.3037 2.80454 83.1665 3.48023 82.8879C4.15592 82.6093 4.7673 82.1951 5.27659 81.6708C6.34408 80.6379 6.96358 79.2273 7.00188 77.7423V28.5028C6.95323 27.5497 6.65921 26.6253 6.14833 25.8193C5.63745 25.0132 4.92703 24.3528 4.0859 23.902C3.2459 23.4436 2.30504 23.2015 1.34811 23.1973H0.197909V22.3144H25C27.2834 22.3424 29.5636 22.1334 31.8039 21.6907C33.0922 21.4597 34.3619 21.1349 35.6028 20.7188V36.1896H34.6308V35.1285C34.7109 33.9636 34.5525 32.7946 34.1653 31.6929C33.7781 30.5913 33.1703 29.5802 32.379 28.7215C30.697 27.0516 28.4231 26.114 26.0529 26.1133H20.221V51.8306H34.2744C35.2782 51.8332 36.2724 51.6354 37.1987 51.2487C38.1251 50.8621 38.9649 50.2943 39.669 49.5789C40.3619 48.8751 40.9061 48.0391 41.2693 47.1207C41.6325 46.2023 41.8072 45.2202 41.7831 44.2329V43.4229H42.593V63.8428H41.7831V63.13C41.817 62.1355 41.6469 61.1445 41.2833 60.2181C40.9197 59.2917 40.3703 58.4496 39.669 57.7436C38.9737 57.0439 38.1471 56.4884 37.2367 56.1089C36.3262 55.7295 35.3499 55.5335 34.3635 55.5323H20.221V80.3667H37.4577C41.396 80.4873 45.2432 79.1684 48.2792 76.657C51.1952 74.1784 53.3552 70.6684 54.7592 66.127H55.642L51.4949 84.1575H0.165527V83.2746L1.34811 83.2908Z" fill="#FED395"/>
<path d="M60.1702 83.2912C60.901 83.3046 61.6268 83.1677 62.3026 82.889C62.9783 82.6104 63.5897 82.1959 64.0987 81.6713C65.1662 80.6383 65.7857 79.2277 65.824 77.7428V28.7624C65.7857 27.2775 65.1662 25.8668 64.0987 24.8339C63.5897 24.3093 62.9783 23.8948 62.3026 23.6161C61.6268 23.3375 60.901 23.2006 60.1702 23.2139H59.02V22.3311H85.8875L85.7984 23.2139H84.7778C84.0401 23.2029 83.3077 23.3407 82.6244 23.6191C81.9411 23.8974 81.3209 24.3106 80.8008 24.8339C80.2631 25.3359 79.8363 25.9446 79.5475 26.6211C79.2588 27.2976 79.1146 28.0269 79.1241 28.7624V80.3752H90.6989C94.6372 80.4958 98.4844 79.1769 101.52 76.6655C104.436 74.1869 106.596 70.6769 108 66.1356H108.883L104.833 84.166H59.02V83.2831L60.1702 83.2912Z" fill="#FED395"/>
<path d="M174.962 83.291H175.772V84.1739H147.584V83.291H148.394C148.933 83.3336 149.475 83.2479 149.975 83.041C150.475 82.834 150.918 82.5117 151.27 82.1003C151.819 81.4701 152.144 80.6752 152.193 79.8404C152.189 79.1137 152.04 78.3952 151.756 77.7264L147.422 66.8562H126.711L122.118 77.7264C121.835 78.4128 121.684 79.1465 121.672 79.889C121.732 80.7084 122.059 81.4854 122.604 82.1003C122.968 82.5177 123.426 82.843 123.939 83.05C124.453 83.2569 125.009 83.3395 125.56 83.291H126.273V84.1739H107.36V83.291H108.17C109.609 83.2615 111.011 82.8324 112.22 82.0517C113.652 81.141 114.811 79.859 115.573 78.3419L135.993 32.1236C138.763 26.2917 140.235 22.4334 140.408 20.5488H141.218L167.47 78.1637C168.222 79.7236 169.381 81.0524 170.823 82.0112C172.053 82.8217 173.489 83.2656 174.962 83.291ZM128.217 63.1384H145.891L137.313 41.3981L128.217 63.1384Z" fill="#FED395"/>
<path d="M245.221 23.1976C244.517 23.1878 243.817 23.3196 243.165 23.5854C242.512 23.8512 241.92 24.2454 241.422 24.7447C240.907 25.2289 240.493 25.8104 240.204 26.4554C239.915 27.1005 239.756 27.7964 239.738 28.5031V74.0977C239.693 77.4448 239.965 80.7886 240.548 84.0849L240.815 85.4133H240.005L195.374 42.9048V77.9856C195.367 78.6905 195.507 79.3891 195.786 80.0364C196.065 80.6838 196.477 81.2655 196.994 81.744C197.492 82.243 198.084 82.637 198.737 82.9028C199.389 83.1685 200.088 83.3006 200.793 83.2911H202.47V84.174H175.667V83.2911H177.287C178.006 83.3061 178.72 83.1769 179.388 82.9112C180.055 82.6455 180.663 82.2486 181.175 81.744C181.699 81.2519 182.114 80.6551 182.394 79.9923C182.673 79.3296 182.809 78.6155 182.795 77.8965V32.0347C182.843 28.776 182.571 25.5205 181.985 22.3147L181.807 20.9863H182.617L227.247 63.4949V28.5841C227.236 27.8649 227.082 27.1552 226.794 26.4961C226.507 25.837 226.091 25.2416 225.571 24.7447C225.073 24.2465 224.48 23.853 223.828 23.5873C223.175 23.3216 222.476 23.1891 221.772 23.1976H220.152V22.3147H246.93V23.1976H245.221Z" fill="#FED395"/>
<path d="M376.627 93.5379C371.293 96.5546 365.258 98.1109 359.131 98.0496C349.589 98.0496 340.634 94.8096 332.264 88.3296L323.248 81.1693C317.81 83.8518 311.816 85.2143 305.752 85.1463C301.443 85.1951 297.152 84.5832 293.027 83.332C289.743 82.3528 286.584 80.9936 283.615 79.282C281.184 77.8094 279.114 75.8111 277.557 73.4338C275.926 70.9576 275.079 68.0474 275.127 65.0828C275.084 62.7793 275.574 60.4971 276.557 58.4137C277.54 56.3303 278.991 54.5018 280.797 53.0706C282.901 51.3383 285.295 49.9918 287.868 49.0935C285.168 44.9085 283.818 40.9611 283.818 37.2514C283.689 33.9263 284.755 30.6649 286.823 28.0579C290.603 23.4086 296.613 21.0812 304.853 21.0758C309.49 20.9471 314.092 21.9157 318.283 23.9027C319.965 24.6792 321.424 25.8657 322.527 27.3533L319.522 39.9892H318.712C318.534 34.0492 316.884 29.7292 313.763 27.0292C311.873 25.4921 309.482 24.7049 307.048 24.818C305.762 24.7842 304.482 25.0229 303.294 25.5185C302.106 26.014 301.037 26.7553 300.155 27.6934C299.224 28.7105 298.502 29.9018 298.032 31.1988C297.562 32.4957 297.353 33.8728 297.418 35.2507C297.418 38.3665 298.625 41.4444 301.038 44.4846C304.367 48.4345 308.049 52.073 312.038 55.3548C316.952 59.5667 323.065 64.6967 330.376 70.7447C337.45 63.4979 340.985 55.128 340.979 45.6348C340.967 38.5881 338.604 31.7469 334.264 26.195C330.909 21.8607 326.845 18.1252 322.244 15.1466L322.779 14.6201C327.672 17.3336 332.042 20.8996 335.682 25.15C339.035 29.1946 341.273 33.1123 342.397 36.9031C343.479 40.4732 344.044 44.1803 344.073 47.9109C344.073 57.5715 340.563 66.0548 333.543 73.3609L336.281 75.6613C339.051 78.0157 341.392 79.93 343.304 81.4042C345.215 82.8784 347.589 84.4984 350.424 86.2641C352.916 87.9056 355.584 89.2639 358.378 90.3141C362.769 92.0159 367.439 92.8839 372.148 92.8737C373.564 92.8734 374.979 92.7842 376.384 92.6064L376.627 93.5379ZM289.05 62.0777C289.05 68.2661 291.229 73.0693 295.587 76.4875C299.269 79.3593 303.822 80.8856 308.49 80.8129C312.366 80.8059 316.196 79.9632 319.717 78.3424C310.348 70.7824 304.632 66.1277 302.569 64.3781C298.491 61.1111 294.698 57.5046 291.229 53.597C289.726 56.1653 288.971 59.1029 289.05 62.0777Z" fill="#FED395"/>
<path d="M443.435 23.1976C442.731 23.1882 442.032 23.3203 441.379 23.586C440.726 23.8518 440.134 24.2458 439.636 24.7447C439.122 25.2293 438.71 25.811 438.422 26.4561C438.134 27.1012 437.977 27.7969 437.96 28.5031V74.0977C437.912 77.4449 438.183 80.7892 438.77 84.0849L439.037 85.4133H438.227L393.604 42.9048V77.9856C393.596 78.6906 393.737 79.3894 394.016 80.0368C394.295 80.6842 394.706 81.2658 395.224 81.744C395.722 82.243 396.314 82.637 396.967 82.9028C397.62 83.1685 398.319 83.3006 399.023 83.2911H400.676V84.174H373.889V83.2911H375.509C376.228 83.3061 376.942 83.1769 377.61 82.9112C378.278 82.6455 378.885 82.2486 379.397 81.744C379.921 81.2519 380.337 80.6551 380.616 79.9923C380.895 79.3296 381.032 78.6155 381.017 77.8965V32.0347C381.069 28.7759 380.798 25.5199 380.207 22.3147L380.037 20.9863H380.847L425.478 63.4949V28.5841C425.463 27.8647 425.307 27.1553 425.018 26.4965C424.729 25.8377 424.313 25.2423 423.793 24.7447C423.295 24.2458 422.703 23.8518 422.05 23.586C421.398 23.3203 420.699 23.1882 419.994 23.1976H418.374V22.3147H445.152V23.1976H443.435Z" fill="#FED395"/>
<path d="M529.513 0.396316C530.752 0.383168 531.991 0.442671 533.223 0.574516V1.45741C529.91 1.54279 526.67 2.45018 523.795 4.098C521.396 5.4334 519.232 7.15163 517.388 9.18479C516.116 10.74 515.112 12.0116 514.383 12.9836C513.566 14.0867 512.84 15.2543 512.212 16.4747C511.094 18.5321 510.063 20.5652 509.118 22.574L485.441 74.3569C482.741 80.1889 481.297 84.0472 481.108 85.9318H480.298L453.511 28.2358C452.741 26.7092 451.582 25.4127 450.15 24.4774C448.918 23.663 447.479 23.2189 446.003 23.1977H445.29V22.3148H473.397V23.1977H472.684C472.146 23.1544 471.605 23.2398 471.107 23.4468C470.608 23.6539 470.166 23.9766 469.817 24.3883C469.262 25.013 468.934 25.8062 468.885 26.6402C468.888 27.3622 469.009 28.0789 469.242 28.7623L484.267 65.2607L502.557 22.5821C505.327 16.0373 508.567 11.1179 512.277 7.82395C517.763 2.87759 523.508 0.401716 529.513 0.396316Z" fill="#FED395"/>
<path d="M516.075 83.291C516.807 83.304 517.534 83.167 518.211 82.8884C518.888 82.6098 519.501 82.1955 520.012 81.671C521.075 80.6351 521.694 79.2263 521.737 77.7425V28.6731C521.698 27.2002 521.078 25.8025 520.012 24.7851C519.498 24.2648 518.885 23.8533 518.208 23.575C517.532 23.2967 516.807 23.1573 516.075 23.1651H514.925V22.2822H541.793L541.704 23.1651H540.643C539.906 23.1591 539.175 23.2992 538.492 23.5773C537.809 23.8553 537.189 24.2658 536.666 24.7851C536.127 25.2777 535.699 25.879 535.41 26.5492C535.121 27.2194 534.977 27.9433 534.989 28.6731V77.7264C534.979 78.4618 535.124 79.1911 535.412 79.8676C535.701 80.5441 536.128 81.1529 536.666 81.6548C537.186 82.1782 537.806 82.5913 538.489 82.8697C539.173 83.148 539.905 83.2858 540.643 83.2748H541.704L541.793 84.1577H514.925V83.2748L516.075 83.291Z" fill="#FED395"/>
<path d="M549.714 75.9523C549.604 72.1455 550.552 68.3826 552.452 65.0822H553.262C553.204 65.5525 553.175 66.0258 553.173 66.4997C553.158 68.4773 553.538 70.4381 554.29 72.2671C555.043 74.0961 556.153 75.7565 557.555 77.1511C560.46 80.1805 564.451 81.6979 569.527 81.7033C573.469 81.7033 576.547 80.7583 578.761 78.8683C579.82 78.0064 580.669 76.9143 581.243 75.6749C581.818 74.4356 582.101 73.0816 582.073 71.716C582.073 68.2438 579.716 65.2091 575.002 62.6117L559.612 52.4463C556.852 50.9808 554.568 48.7581 553.027 46.0392C551.741 43.6946 551.059 41.0669 551.043 38.3929C551.043 32.8579 552.795 28.5893 556.299 25.5869C559.804 22.5845 564.297 21.0806 569.778 21.0752C573.796 21.1332 577.807 21.428 581.79 21.9581H587.363L586.213 34.918H585.354C585.4 33.5081 585.117 32.1069 584.526 30.8259C583.936 29.5448 583.054 28.4193 581.952 27.5389C579.684 25.6867 576.663 24.758 572.888 24.7526C568.298 24.7526 564.972 26.1673 562.909 28.9969C561.859 30.2968 561.287 31.9182 561.289 33.5896C561.289 36.4246 563.352 39.0463 567.477 41.4546L584.358 52.4139C589.655 55.4811 592.306 59.9873 592.312 65.9327C592.312 72.2399 590.176 77.0566 585.905 80.383C581.633 83.7093 575.963 85.3752 568.895 85.3806C565.149 85.4151 561.416 84.9243 557.806 83.9226C554.42 82.9506 551.931 81.6385 550.338 79.9861C549.897 78.6881 549.686 77.323 549.714 75.9523Z" fill="#FED395"/>
<path d="M600.744 83.291C601.476 83.304 602.203 83.167 602.88 82.8884C603.557 82.6098 604.17 82.1955 604.681 81.671C605.745 80.6368 606.362 79.2263 606.398 77.7425V28.6731C606.382 27.9439 606.221 27.2251 605.927 26.5579C605.632 25.8907 605.209 25.2882 604.681 24.7851C604.167 24.2648 603.553 23.8533 602.877 23.575C602.201 23.2967 601.475 23.1573 600.744 23.1651H599.594V22.2822H626.461L626.372 23.1651H625.311C624.574 23.1591 623.843 23.2992 623.161 23.5773C622.478 23.8553 621.857 24.2658 621.334 24.7851C620.796 25.2777 620.368 25.879 620.079 26.5492C619.79 27.2194 619.646 27.9433 619.657 28.6731V77.7264C619.648 78.4618 619.792 79.1911 620.081 79.8676C620.37 80.5441 620.796 81.1529 621.334 81.6548C621.854 82.1782 622.474 82.5913 623.158 82.8697C623.841 83.148 624.573 83.2858 625.311 83.2748H626.372L626.461 84.1577H599.594V83.2748L600.744 83.291Z" fill="#FED395"/>
<path d="M666.928 21.1084C677.826 21.1084 686.484 23.9947 692.905 29.7672C699.326 35.5398 702.539 43.3697 702.544 53.2571C702.544 63.1552 699.331 70.9852 692.905 76.7469C686.479 82.5087 677.82 85.395 666.928 85.4058C656.026 85.4058 647.364 82.5195 640.944 76.7469C634.523 70.9744 631.313 63.1444 631.313 53.2571C631.313 46.7231 632.771 41.0235 635.687 36.1581C638.622 31.2803 642.946 27.3885 648.104 24.9802C653.466 22.399 659.741 21.1084 666.928 21.1084ZM651.539 74.0901C653.346 76.467 655.678 78.394 658.354 79.7205C661.029 81.047 663.975 81.7372 666.961 81.7372C669.947 81.7372 672.893 81.047 675.568 79.7205C678.243 78.394 680.576 76.467 682.383 74.0901C686.163 68.998 688.053 62.059 688.053 53.2733C688.162 48.1213 687.294 42.9954 685.494 38.1669C684.057 34.2268 681.507 30.7884 678.155 28.2688C674.885 25.9399 670.95 24.7296 666.937 24.8182C663.941 24.7302 660.969 25.3818 658.285 26.7155C655.601 28.0491 653.286 30.0237 651.547 32.4645C647.767 37.5567 645.877 44.493 645.877 53.2733C645.877 62.0536 647.753 68.9818 651.506 74.0577L651.539 74.0901Z" fill="#FED395"/>
<path d="M777.128 23.1976C776.424 23.1882 775.724 23.3203 775.072 23.586C774.419 23.8518 773.827 24.2458 773.329 24.7447C772.815 25.2293 772.403 25.811 772.115 26.4561C771.827 27.1012 771.67 27.7969 771.653 28.5031V74.0977C771.604 77.4449 771.876 80.7892 772.463 84.0849L772.722 85.4133H771.912L727.289 42.9048V77.9856C727.281 78.6906 727.421 79.3894 727.7 80.0368C727.979 80.6842 728.391 81.2658 728.909 81.744C729.407 82.243 729.999 82.637 730.652 82.9028C731.304 83.1685 732.004 83.3006 732.708 83.2911H734.393V84.174H707.582V83.2911H709.202C709.921 83.3061 710.635 83.1769 711.303 82.9112C711.97 82.6455 712.578 82.2486 713.09 81.744C713.614 81.2519 714.03 80.6551 714.309 79.9923C714.588 79.3296 714.724 78.6155 714.71 77.8965V32.0347C714.762 28.7759 714.49 25.52 713.9 22.3147L713.722 20.9863H714.532L759.154 63.4949V28.5841C759.143 27.8649 758.989 27.1552 758.701 26.4961C758.414 25.837 757.998 25.2416 757.478 24.7447C756.98 24.2458 756.388 23.8518 755.735 23.586C755.083 23.3203 754.383 23.1882 753.679 23.1976H752.059V22.3147H778.789V23.1976H777.128Z" fill="#FED395"/>
<path d="M827.85 28.8516C834.687 28.8516 840.24 30.2501 844.512 33.0473C848.783 35.8445 850.919 39.6893 850.919 44.5816C850.847 48.5525 849.375 52.3704 846.764 55.3627C845.116 57.469 843.266 59.4087 841.24 61.1541C839.62 62.4825 838.38 63.4789 837.53 64.1592C836.679 64.8396 835.464 65.6901 833.909 66.7188C832.354 67.7475 831.228 68.4927 830.548 68.9301C829.867 69.3675 828.766 70.0641 827.235 71.0037C825.704 71.9433 824.805 72.5427 824.408 72.7775H842.697C844.993 72.857 847.257 72.2231 849.177 70.9632C851.254 69.3601 852.959 67.3263 854.175 65.0016H855.082L849.777 84.1742H807.357V83.3642C808.832 81.836 810.908 79.73 813.586 77.0462C816.265 74.3625 818.506 72.108 820.309 70.2828C822.102 68.463 824.132 66.2544 826.4 63.6571C828.368 61.4557 830.184 59.1229 831.836 56.6749C835.14 51.7285 836.79 47.3842 836.785 43.6421C836.779 39.8999 835.764 37.0703 833.739 35.1533C831.583 33.1959 828.743 32.1658 825.833 32.2859C821.465 32.2859 818.179 33.6359 815.976 36.3359C813.773 39.0359 812.668 42.7025 812.663 47.3356H811.78L807.625 34.6106C810.277 32.6185 813.309 31.1906 816.535 30.4148C820.219 29.388 824.025 28.8622 827.85 28.8516Z" fill="#FED395"/>
<path d="M869.435 37.3813C874.171 32.4079 880.635 29.9185 888.827 29.9131C897.018 29.9077 903.485 32.3971 908.226 37.3813C912.972 42.3654 915.343 49.1154 915.338 57.6311C915.332 66.1469 912.962 72.8968 908.226 77.881C903.49 82.8652 897.024 85.3545 888.827 85.3491C883.904 85.4672 879.035 84.3092 874.692 81.9876C870.72 79.7868 867.513 76.4272 865.499 72.3568C863.284 67.759 862.193 62.7007 862.315 57.5987C862.315 49.0992 864.689 42.36 869.435 37.3813ZM888.827 33.6229C887.553 33.6186 886.293 33.8751 885.123 34.3766C883.953 34.8781 882.898 35.614 882.023 36.5388C878.021 40.551 876.018 47.5926 876.012 57.6635C876.012 65.0831 877.163 70.9447 879.463 75.2485C881.763 79.5523 884.885 81.7123 888.827 81.7285C892.779 81.7285 895.917 79.5685 898.239 75.2485C900.561 70.9285 901.724 65.0669 901.73 57.6635C901.73 47.5872 899.697 40.5456 895.631 36.5388C894.756 35.614 893.701 34.8781 892.53 34.3766C891.36 33.8751 890.1 33.6186 888.827 33.6229Z" fill="#FED395"/>
<path d="M940.528 28.8516C947.365 28.8516 952.916 30.2501 957.182 33.0473C961.448 35.8445 963.594 39.6947 963.621 44.5979C963.552 48.5678 962.083 52.3858 959.474 55.3789C957.824 57.4833 955.974 59.4228 953.95 61.1704C952.33 62.4988 951.091 63.495 950.24 64.1754C949.39 64.8558 948.175 65.7063 946.611 66.735C945.048 67.7637 943.93 68.5089 943.258 68.9463C942.586 69.3837 941.476 70.0803 939.945 71.0199C938.414 71.9595 937.466 72.5589 937.11 72.7938H955.408C957.703 72.8721 959.967 72.2383 961.888 70.9794C963.962 69.3757 965.664 67.3419 966.877 65.0178H967.76L962.463 84.1904H920.043V83.3804C921.507 81.8522 923.583 79.7462 926.272 77.0625C928.962 74.3787 931.2 72.1242 932.987 70.299C934.785 68.4792 936.818 66.2706 939.086 63.6732C941.052 61.4698 942.868 59.1372 944.522 56.6911C947.821 51.7447 949.471 47.4005 949.471 43.6583C949.471 39.9161 948.453 37.0865 946.417 35.1695C944.262 33.2097 941.421 32.1794 938.511 32.3021C934.154 32.3021 930.868 33.6521 928.654 36.3521C926.44 39.0521 925.335 42.7187 925.341 47.3519H924.458L920.303 34.6268C922.957 32.6373 925.988 31.2096 929.213 30.4311C932.897 29.3994 936.703 28.8681 940.528 28.8516Z" fill="#FED395"/>
<path d="M972.693 36.3683C977.294 32.1779 983.804 30.0854 992.222 30.0908C998.162 30.0908 1002.94 31.3733 1006.54 33.9383C1008.26 35.0964 1009.65 36.6693 1010.59 38.5104C1011.53 40.3516 1011.99 42.4012 1011.93 44.4682C1011.94 46.7871 1011.37 49.0721 1010.27 51.1111C1009.16 53.1501 1007.56 54.8772 1005.61 56.1321C1003.87 57.2358 1001.88 57.8771 999.828 57.9951C1003.46 58.6624 1006.83 60.3477 1009.55 62.8551C1012.61 65.6792 1014.17 69.6564 1014.23 74.7863C1014.26 78.1803 1013.42 81.526 1011.8 84.5063C1008.73 90.0412 1003.4 94.0183 995.803 96.4375C992.51 97.4516 989.082 97.9569 985.637 97.9359C981.394 97.9473 977.18 97.2295 973.179 95.8138L973.358 94.9309H974.24C978.543 94.9646 982.809 94.1384 986.787 92.5009C990.603 90.9482 993.92 88.3792 996.378 85.0732C998.802 81.8397 1000.09 77.8963 1000.05 73.8548C1000.05 68.012 997.617 63.8271 992.757 61.2999C989.718 59.7704 986.349 59.0137 982.948 59.0967L983.126 58.2057H983.564C987.421 58.2658 991.149 56.8119 993.948 54.1557C995.335 52.9284 996.444 51.4177 997.199 49.7256C997.953 48.0335 998.336 46.1994 998.322 44.3467C998.322 40.7503 997.32 38.099 995.317 36.3926C993.358 34.697 990.843 33.7829 988.253 33.8249C980.947 33.8249 977.294 38.4149 977.294 47.5948V48.9232H976.411L972.693 36.3683Z" fill="#FED395"/>
</svg>
