<svg width="46" height="46" viewBox="0 0 46 46" fill="none" xmlns="http://www.w3.org/2000/svg">
<path d="M18.7014 15.5997L12.6616 12.1377L18.1526 17.6255L18.7014 15.5997Z" fill="#FED395"/>
<path d="M12.4639 12.335L15.9259 18.3747L17.9517 17.8228L12.4639 12.335Z" fill="#FED395"/>
<path d="M27.8324 17.6255L33.3203 12.1377L27.2805 15.5997L27.8324 17.6255Z" fill="#FED395"/>
<path d="M21.4794 16.8665L22.8498 16.4934V1.37207L19.0271 15.4617L21.4794 16.8665Z" fill="#FED395"/>
<path d="M18.0237 18.0957L16.0701 18.6257L17.2993 20.7706L18.0237 18.0957Z" fill="#FED395"/>
<path d="M24.5054 16.8665L26.9545 15.4617L23.1318 1.37207V16.4934L24.5054 16.8665Z" fill="#FED395"/>
<path d="M23.3293 22.5237H27.5189L25.9917 19.8613L23.3293 22.5237Z" fill="#FED395"/>
<path d="M15.791 18.7012L1.69824 22.5238H16.8227L17.1959 21.1534L15.791 18.7012Z" fill="#FED395"/>
<path d="M28.002 22.5237H28.8706L28.5915 21.4951L28.002 22.5237Z" fill="#FED395"/>
<path d="M17.1108 22.5237H17.9795L17.3899 21.4951L17.1108 22.5237Z" fill="#FED395"/>
<path d="M18.4658 22.5237H22.6522L19.9899 19.8613L18.4658 22.5237Z" fill="#FED395"/>
<path d="M28.4882 21.1126L27.6885 18.168L26.199 19.6575L27.7607 22.3826L28.4882 21.1126Z" fill="#FED395"/>
<path d="M30.0561 18.3747L33.5181 12.335L28.0303 17.8228L30.0561 18.3747Z" fill="#FED395"/>
<path d="M18.4216 17.6978L21.0966 16.9703L18.9516 15.7441L18.4216 17.6978Z" fill="#FED395"/>
<path d="M23.1318 17.6538L24.1604 17.0643L23.1318 16.7852V17.6538Z" fill="#FED395"/>
<path d="M24.8882 16.9703L27.56 17.6978L27.03 15.7441L24.8882 16.9703Z" fill="#FED395"/>
<path d="M28.6858 20.7706L29.9151 18.6257L27.9583 18.0957L28.6858 20.7706Z" fill="#FED395"/>
<path d="M25.9983 19.4572L27.491 17.9676L24.5432 17.168L23.2732 17.8955L25.9983 19.4572Z" fill="#FED395"/>
<path d="M28.7891 21.1534L29.1622 22.5238H44.2835L30.1939 18.7012L28.7891 21.1534Z" fill="#FED395"/>
<path d="M25.7942 19.6639L23.1318 18.1367V22.3263L25.7942 19.6639Z" fill="#FED395"/>
<path d="M19.9837 19.4572L22.7088 17.8955L21.4387 17.168L18.4941 17.9676L19.9837 19.4572Z" fill="#FED395"/>
<path d="M18.2241 22.3826L19.7858 19.6575L18.2931 18.168L17.4966 21.1126L18.2241 22.3826Z" fill="#FED395"/>
<path d="M22.8496 18.1367L20.1873 19.6639L22.8496 22.3263V18.1367Z" fill="#FED395"/>
<path d="M21.8242 17.0643L22.8497 17.6538V16.7852L21.8242 17.0643Z" fill="#FED395"/>
<path d="M22.6522 22.8057H18.4658L19.9899 25.468L22.6522 22.8057Z" fill="#FED395"/>
<path d="M17.9795 22.8057H17.1108L17.3899 23.8342L17.9795 22.8057Z" fill="#FED395"/>
<path d="M17.2993 24.5586L16.0701 26.7035L18.0237 27.2335L17.2993 24.5586Z" fill="#FED395"/>
<path d="M30.1939 26.6283L44.2835 22.8057H29.1622L28.7891 24.176L30.1939 26.6283Z" fill="#FED395"/>
<path d="M27.2805 29.7299L33.3203 33.1919L27.8324 27.7041L27.2805 29.7299Z" fill="#FED395"/>
<path d="M27.5189 22.8057H23.3293L25.9917 25.468L27.5189 22.8057Z" fill="#FED395"/>
<path d="M16.8227 22.8057H1.69824L15.791 26.6283L17.1959 24.176L16.8227 22.8057Z" fill="#FED395"/>
<path d="M15.9259 26.9551L12.4639 32.9948L17.9517 27.507L15.9259 26.9551Z" fill="#FED395"/>
<path d="M24.5054 28.4629L23.1318 28.8329V43.9574L26.9545 29.8678L24.5054 28.4629Z" fill="#FED395"/>
<path d="M18.1526 27.7041L12.6616 33.1919L18.7014 29.7299L18.1526 27.7041Z" fill="#FED395"/>
<path d="M21.4794 28.4629L19.0271 29.8678L22.8498 43.9574V28.8329L21.4794 28.4629Z" fill="#FED395"/>
<path d="M28.8706 22.8057H28.002L28.5915 23.8342L28.8706 22.8057Z" fill="#FED395"/>
<path d="M17.4966 24.2173L18.2931 27.1619L19.7858 25.6724L18.2241 22.9473L17.4966 24.2173Z" fill="#FED395"/>
<path d="M20.1873 25.6663L22.8496 27.1903V23.0039L20.1873 25.6663Z" fill="#FED395"/>
<path d="M24.5432 28.1625L27.491 27.3628L25.9983 25.8701L23.2732 27.4349L24.5432 28.1625Z" fill="#FED395"/>
<path d="M23.1318 27.1903L25.7942 25.6663L23.1318 23.0039V27.1903Z" fill="#FED395"/>
<path d="M27.7607 22.9473L26.199 25.6724L27.6885 27.1619L28.4882 24.2173L27.7607 22.9473Z" fill="#FED395"/>
<path d="M27.9583 27.2335L29.9151 26.7035L28.6858 24.5586L27.9583 27.2335Z" fill="#FED395"/>
<path d="M24.1604 28.2653L23.1318 27.6758V28.5444L24.1604 28.2653Z" fill="#FED395"/>
<path d="M33.5181 32.9948L30.0561 26.9551L28.0303 27.507L33.5181 32.9948Z" fill="#FED395"/>
<path d="M27.56 27.6318L24.8882 28.3562L27.03 29.5855L27.56 27.6318Z" fill="#FED395"/>
<path d="M21.4387 28.1625L22.7088 27.4349L19.9837 25.8701L18.4941 27.3628L21.4387 28.1625Z" fill="#FED395"/>
<path d="M21.0966 28.3562L18.4216 27.6318L18.9516 29.5855L21.0966 28.3562Z" fill="#FED395"/>
<path d="M22.8497 27.6758L21.8242 28.2653L22.8497 28.5444V27.6758Z" fill="#FED395"/>
<path d="M23.0692 45.1238L27.1458 30.0715L34.0448 34.0196C34.0716 34.0341 34.1023 34.0396 34.1324 34.0352C34.1624 34.0308 34.1903 34.0168 34.2118 33.9953C34.2333 33.9738 34.2473 33.9459 34.2517 33.9159C34.2561 33.8858 34.2506 33.8551 34.2361 33.8283L30.288 26.9294L45.3403 22.8527C45.3704 22.8447 45.397 22.827 45.416 22.8023C45.435 22.7777 45.4453 22.7474 45.4453 22.7163C45.4453 22.6851 45.435 22.6549 45.416 22.6302C45.397 22.6055 45.3704 22.5878 45.3403 22.5799L30.288 18.5032L34.2361 11.6042C34.2506 11.5775 34.2561 11.5468 34.2517 11.5167C34.2473 11.4866 34.2333 11.4587 34.2118 11.4372C34.1903 11.4157 34.1624 11.4018 34.1324 11.3974C34.1023 11.393 34.0716 11.3985 34.0448 11.4129L27.1458 15.361L23.0692 0.358891C23.0612 0.328795 23.0435 0.30218 23.0188 0.283191C22.9942 0.264202 22.9639 0.253906 22.9328 0.253906C22.9016 0.253906 22.8714 0.264202 22.8467 0.283191C22.822 0.30218 22.8043 0.328795 22.7964 0.358891L18.7197 15.4112L11.8207 11.4631C11.794 11.4486 11.7633 11.4432 11.7332 11.4475C11.7031 11.4519 11.6752 11.4659 11.6537 11.4874C11.6322 11.5089 11.6182 11.5368 11.6139 11.5669C11.6095 11.597 11.6149 11.6277 11.6294 11.6544L15.5775 18.5534L0.550297 22.605C0.520201 22.6129 0.493586 22.6306 0.474597 22.6553C0.455609 22.68 0.445312 22.7102 0.445312 22.7414C0.445313 22.7725 0.455609 22.8028 0.474597 22.8274C0.493586 22.8521 0.520201 22.8698 0.550297 22.8778L15.6026 26.9544L11.6545 33.8534C11.64 33.8802 11.6346 33.9109 11.639 33.9409C11.6433 33.971 11.6573 33.9989 11.6788 34.0204C11.7003 34.0419 11.7282 34.0559 11.7583 34.0603C11.7884 34.0646 11.8191 34.0592 11.8458 34.0447L18.7448 30.0966L22.8214 45.1489C22.8294 45.179 22.8471 45.2056 22.8718 45.2246C22.8965 45.2436 22.9267 45.2539 22.9579 45.2539C22.989 45.2539 23.0193 45.2436 23.0439 45.2246C23.0686 45.2056 23.0863 45.179 23.0943 45.1489L23.0692 45.1238ZM29.8553 18.7039L28.626 20.8457L27.9016 18.1708L29.8553 18.7039ZM24.8378 17.0481L26.9828 15.8189L27.5127 17.7725L24.8378 17.0481ZM27.4406 18.0454L25.9417 19.5349L23.2134 17.967L24.4835 17.2394L27.4406 18.0454ZM24.1009 17.1422L23.0723 17.7318V16.8757L24.1009 17.1422ZM22.7932 17.7318L21.7709 17.1422L22.7932 16.8757V17.7318ZM18.3622 17.7725L18.8953 15.8189L21.0371 17.0481L18.3622 17.7725ZM21.3821 17.2457L22.6364 17.9732L19.9082 19.5412L18.4186 18.0516L21.3821 17.2457ZM19.7263 19.7325L18.1584 22.4607L17.4308 21.2063L18.2305 18.2586L19.7263 19.7325ZM22.7932 18.2147V22.4043L20.1308 19.7419L22.7932 18.2147ZM23.0723 18.2147L25.7347 19.7419L23.0723 22.4043V18.2147ZM26.1392 19.7325L27.6288 18.2429L28.4284 21.1907L27.7009 22.445L26.1392 19.7325ZM29.9995 18.4436L27.9706 17.8948L33.4615 12.407L29.9995 18.4436ZM33.2608 12.2063L27.773 17.7035L27.2242 15.6746L33.2608 12.2063ZM26.895 15.5398L24.4458 16.9447L23.0723 16.5621V1.44705L26.895 15.5398ZM22.7932 1.44705V16.5621L21.4197 16.9352L18.9706 15.5304L22.7932 1.44705ZM18.635 15.6746L18.0862 17.7035L12.6047 12.2126L18.635 15.6746ZM12.404 12.4133L17.8949 17.9011L15.866 18.4436L12.404 12.4133ZM17.9639 18.1708L17.2395 20.8457L16.0103 18.7039L17.9639 18.1708ZM1.63845 22.6018L15.7312 18.7792L17.1361 21.2283L16.7535 22.6018H1.63845ZM17.0545 22.6018L17.3336 21.5795L17.9232 22.6081L17.0545 22.6018ZM18.4061 22.6018L19.9333 19.9394L22.5957 22.6018H18.4061ZM23.273 22.6018L25.9323 19.9394L27.4594 22.6018H23.273ZM27.9424 22.6018L28.5319 21.5795L28.811 22.6081L27.9424 22.6018ZM29.1026 22.6018L28.7295 21.2283L30.1344 18.7792L44.2271 22.6018H29.1026ZM27.2211 29.8144L27.7699 27.7855L33.2577 33.2764L27.2211 29.8144ZM26.1392 25.7503L27.7072 23.0252L28.4347 24.2795L27.635 27.2273L26.1392 25.7503ZM27.4312 27.4374L24.4835 28.237L23.2134 27.5095L25.9417 25.9415L27.4312 27.4374ZM23.0723 27.268V23.0816L25.7347 25.7408L23.0723 27.268ZM22.7932 27.268L20.1308 25.7408L22.7932 23.0816V27.268ZM19.7263 25.7503L18.2368 27.2398L17.4371 24.2921L18.1646 23.0377L19.7263 25.7503ZM19.9239 25.9478L22.6521 27.5158L21.3977 28.2433L18.45 27.4436L19.9239 25.9478ZM21.0371 28.4346L18.8953 29.6639L18.3622 27.7102L21.0371 28.4346ZM21.7646 28.3405L22.7932 27.751V28.6196L21.7646 28.3405ZM23.0723 27.751L24.1009 28.3405L23.0723 28.6196V27.751ZM27.5033 27.7102L26.9734 29.6639L24.8284 28.4346L27.5033 27.7102ZM33.4615 33.0694L27.9706 27.5816L29.9995 27.0328L33.4615 33.0694ZM27.9016 27.3119L28.626 24.637L29.8553 26.782L27.9016 27.3119ZM44.2271 22.8809L30.1344 26.7036L28.7295 24.2544L29.1026 22.8809H44.2271ZM28.811 22.8809L28.5319 23.9095L27.9424 22.8809H28.811ZM27.4594 22.8809L25.9323 25.5433L23.273 22.8809H27.4594ZM22.5957 22.8809L19.9333 25.5433L18.4061 22.8809H22.5957ZM17.9232 22.8809L17.3336 23.9095L17.0671 22.8809H17.9232ZM1.63845 22.8809H16.7535L17.1267 24.2544L15.7218 26.7036L1.63845 22.8809ZM16.0103 26.782L17.2395 24.637L17.9639 27.3119L16.0103 26.782ZM15.866 27.0328L17.8949 27.5816L12.404 33.0694L15.866 27.0328ZM12.6047 33.2701L18.0925 27.7792L18.635 29.8081L12.6047 33.2701ZM18.9706 29.943L21.4197 28.5381L22.7932 28.9112V44.0357L18.9706 29.943ZM23.0723 28.9112L24.4458 28.5381L26.895 29.943L23.0723 44.0357V28.9112Z" fill="#080F24"/>
</svg>
