<svg width="639" height="143" viewBox="0 0 639 143" fill="none" xmlns="http://www.w3.org/2000/svg">
<g clip-path="url(#clip0_602_2380)">
<path d="M101.767 39.6466C103.259 39.6313 104.75 39.7024 106.233 39.8596V40.9093C102.222 40.9986 98.2986 42.0946 94.8225 44.0965C91.2118 46.2923 88.6432 48.3208 87.1168 50.1819C85.5955 52.0532 84.386 53.5822 83.5036 54.746C82.5174 56.0725 81.6446 57.4796 80.8945 58.9525C79.5506 61.4323 78.3107 63.8767 77.1748 66.2855L48.6798 128.585C45.4292 135.639 43.705 140.297 43.5072 142.559H42.5488L10.3341 73.1392C9.4095 71.2911 8.01687 69.7175 6.29492 68.5751C4.80727 67.6038 3.07381 67.0761 1.29727 67.0537H0.445312V66.0116H34.2574V67.0766H33.4054C32.7559 67.0251 32.1034 67.1286 31.5017 67.3785C30.9 67.6285 30.3663 68.0177 29.9444 68.5142C29.2835 69.2684 28.8927 70.2212 28.8338 71.2222C28.8335 72.0894 28.9774 72.9506 29.2597 73.7705L47.3334 117.684L69.3398 66.3311C72.6716 58.4657 76.5688 52.5476 81.0314 48.5769C87.629 42.6233 94.541 39.6466 101.767 39.6466Z" fill="#FED395"/>
<path d="M145.78 139.371H146.739V140.436H112.828V139.371H113.786C114.436 139.422 115.088 139.319 115.69 139.069C116.292 138.819 116.825 138.43 117.247 137.933C117.904 137.18 118.292 136.23 118.35 135.233C118.347 134.356 118.166 133.489 117.818 132.685L112.615 119.601H87.733L82.2029 132.685C81.8654 133.511 81.6848 134.393 81.6704 135.286C81.7374 136.271 82.1309 137.205 82.7886 137.941C83.2266 138.444 83.7774 138.837 84.3961 139.087C85.0148 139.337 85.6839 139.437 86.3486 139.379H87.2006V140.444H64.4487V139.379H65.4072C67.1476 139.338 68.8419 138.811 70.2983 137.857C72.0234 136.761 73.4193 135.218 74.3375 133.392L98.8998 77.7866C102.226 70.7732 104.001 66.133 104.225 63.8662H105.183L136.759 133.179C137.664 135.057 139.059 136.655 140.798 137.804C142.273 138.794 144.003 139.339 145.78 139.371ZM89.5435 115.128H110.842L100.528 88.9761L89.5435 115.128Z" fill="#FED395"/>
<path d="M149.287 139.371C150.168 139.385 151.042 139.218 151.856 138.881C152.67 138.543 153.406 138.042 154.018 137.409C155.302 136.163 156.047 134.465 156.095 132.677V73.7706C156.047 71.9828 155.302 70.2846 154.018 69.0392C153.406 68.406 152.67 67.9051 151.856 67.5675C151.042 67.23 150.168 67.0629 149.287 67.0767H147.91V66.0117H180.231L180.125 67.0767H178.847C177.959 67.0672 177.078 67.2359 176.256 67.573C175.434 67.9101 174.688 68.4087 174.062 69.0392C173.415 69.6442 172.901 70.3774 172.553 71.1919C172.204 72.0065 172.029 72.8847 172.039 73.7706V135.865H185.967C191.15 135.865 195.493 134.376 198.997 131.399C202.501 128.423 205.105 124.206 206.809 118.749H207.874L202.983 140.436H147.91V139.371H149.287Z" fill="#FED395"/>
<path d="M214.142 139.371C215.023 139.385 215.897 139.218 216.711 138.88C217.525 138.543 218.261 138.042 218.873 137.409C220.157 136.163 220.902 134.465 220.95 132.677V73.451C220.892 72.3061 220.538 71.1958 219.924 70.228C219.309 69.2603 218.455 68.4681 217.443 67.9285C216.431 67.3731 215.296 67.0802 214.142 67.0766H212.765V66.0116H253.484C255.906 65.9921 258.323 65.7784 260.711 65.3727C262.591 65.1259 264.443 64.6979 266.241 64.0947V82.7009H265.161V81.4305C265.225 80.0226 265.01 78.6158 264.527 77.2918C264.043 75.9677 263.302 74.7527 262.346 73.7173C260.324 71.7087 257.589 70.582 254.739 70.5833H236.894V101.52H250.928C252.136 101.524 253.332 101.286 254.446 100.821C255.56 100.356 256.57 99.673 257.417 98.812C258.254 97.9667 258.911 96.9608 259.349 95.8549C259.787 94.7489 259.996 93.5658 259.965 92.3767V91.4258H261.03V115.98H259.965V115.129C259.965 111.579 258.548 108.957 255.713 107.263C254.274 106.48 252.672 106.043 251.035 105.985H236.894V135.865H250.822C255.994 135.865 260.338 134.376 263.852 131.399C267.367 128.423 269.971 124.206 271.664 118.749H272.767L267.876 140.436H212.803V139.371H214.142Z" fill="#FED395"/>
<path d="M362.246 67.0764C361.4 67.0649 360.56 67.2233 359.776 67.5421C358.992 67.8609 358.28 68.3337 357.682 68.9325C356.437 70.112 355.709 71.7365 355.658 73.4509V128.319C355.598 132.343 355.919 136.365 356.617 140.33L356.936 141.927H355.978L302.282 90.7867V132.989C302.269 133.835 302.433 134.675 302.763 135.454C303.093 136.234 303.582 136.935 304.198 137.515C304.796 138.115 305.508 138.588 306.292 138.907C307.076 139.226 307.916 139.383 308.763 139.371H310.801V140.436H278.571V139.371H280.488C281.352 139.39 282.212 139.236 283.015 138.917C283.819 138.598 284.55 138.121 285.166 137.515C285.79 136.92 286.281 136.201 286.61 135.405C286.939 134.608 287.098 133.752 287.076 132.89V77.7107C287.14 73.7893 286.821 69.8711 286.125 66.0115L285.912 64.4141H286.863L340.559 115.554V73.5574C340.542 72.6914 340.354 71.8372 340.007 71.0437C339.66 70.2501 339.16 69.5327 338.535 68.9325C337.938 68.333 337.226 67.8597 336.442 67.5409C335.658 67.222 334.818 67.0641 333.971 67.0764H332.062V66.0115H364.277V67.0764H362.246Z" fill="#FED395"/>
<path d="M399.458 70.6899H394.567V132.677C394.546 133.869 394.851 135.044 395.451 136.074C396.05 137.104 396.921 137.949 397.967 138.519C399.014 139.084 400.186 139.377 401.375 139.371H402.752V140.436H370.431V139.371H371.815C372.998 139.41 374.169 139.124 375.201 138.543C376.232 137.962 377.085 137.11 377.665 136.078C378.231 135.067 378.559 133.94 378.623 132.784V73.7706C378.57 71.984 377.825 70.2878 376.546 69.0392C375.933 68.4071 375.197 67.9069 374.383 67.5694C373.57 67.2319 372.696 67.0643 371.815 67.0767H370.431V66.0117H406.898C413.774 66.0117 419.588 67.5001 424.34 70.4769C426.776 71.9977 428.758 74.1472 430.075 76.6992C431.529 79.4865 432.261 82.5932 432.205 85.7361C432.239 88.9226 431.642 92.0844 430.448 95.0391C429.188 97.9891 427.173 100.555 424.606 102.479C421.75 104.646 418.341 105.964 414.77 106.282C418.878 107.631 422.491 110.75 425.61 115.638C433.273 127.9 438.945 135.203 442.626 137.546C444.728 138.75 447.112 139.372 449.533 139.349V140.413H439.112C433.088 140.413 428.057 139.579 424.02 137.911C419.899 136.181 416.436 133.183 414.132 129.353C412.345 126.337 410.712 123.232 409.24 120.05C407.252 115.907 405.942 112.948 405.308 111.173C403.391 106.918 400.979 104.545 398.074 104.053V102.988H401.375C404.437 103.029 407.421 102.016 409.826 100.12C412.27 98.2036 413.919 95.0848 414.77 90.7641C415.015 89.6074 415.157 88.4314 415.196 87.2498C415.196 81.4433 414.025 77.2444 411.682 74.653C410.547 73.3825 409.154 72.3695 407.595 71.6821C406.036 70.9946 404.349 70.6485 402.645 70.6671L399.458 70.6899Z" fill="#FED395"/>
<path d="M488.549 64.4902C501.663 64.4902 512.084 67.964 519.812 74.9115C527.541 81.859 531.403 91.2965 531.398 103.224C531.398 115.126 527.536 124.553 519.812 131.506C512.089 138.458 501.668 141.932 488.549 141.927C475.435 141.927 465.016 138.453 457.292 131.506C449.569 124.558 445.707 115.131 445.707 103.224C445.707 95.3585 447.462 88.5124 450.971 82.6856C454.501 76.8184 459.7 72.1362 465.903 69.2369C472.354 66.0724 479.902 64.4902 488.549 64.4902ZM469.996 128.227C474.56 134.363 480.744 137.432 488.549 137.432C496.353 137.432 502.537 134.363 507.102 128.227C511.666 122.101 513.948 113.757 513.948 103.193C513.948 96.251 512.921 90.191 510.867 85.0133C508.813 79.8356 505.869 75.8674 502.035 73.1087C498.1 70.3058 493.364 68.8491 488.533 68.9554C480.739 68.9554 474.555 72.0209 469.98 78.152C465.406 84.283 463.124 92.6302 463.134 103.193C463.139 113.772 465.427 122.127 469.996 128.258V128.227Z" fill="#FED395"/>
<path d="M638.995 67.0765H638.037C636.135 67.1141 634.279 67.6661 632.666 68.6739C630.887 69.7037 629.517 71.3157 628.787 73.238L610.926 130.547C609.783 134.052 609.172 137.709 609.116 141.395V142.345H608.058L584.881 90.9998L568.077 130.555C566.526 134.303 565.663 138.299 565.529 142.353H564.464L539.057 73.2456C538.297 71.4443 537.029 69.903 535.409 68.8091C533.788 67.7152 531.884 67.1159 529.929 67.0841H529.085V66.0115H561.513V67.0765H560.531C559.899 67.031 559.265 67.1378 558.683 67.388C558.1 67.6382 557.587 68.0243 557.184 68.5142C556.519 69.266 556.125 70.2197 556.066 71.2222C556.06 72.0551 556.205 72.8822 556.492 73.6639L569.568 110.663L588.813 64.3076L589.764 64.4141L610.926 111.089L621.576 73.6639C621.787 72.8673 621.895 72.0465 621.895 71.2222C621.846 70.2367 621.492 69.2907 620.883 68.5142C620.49 68.0125 619.976 67.6179 619.39 67.3667C618.804 67.1154 618.164 67.0156 617.529 67.0765H616.593V66.0115H639.026L638.995 67.0765Z" fill="#FED395"/>
<path d="M167.733 23.3001C166.362 25.3847 165.617 27.8187 165.588 30.3135C165.652 32.4455 166.322 34.515 167.522 36.2788C168.721 38.0427 170.399 39.4276 172.358 40.2708C174.01 40.9619 175.785 41.3087 177.576 41.2901C179.331 41.3197 181.071 40.9531 182.665 40.2175C184.055 39.6206 185.229 38.6143 186.033 37.3327C186.836 36.0512 187.229 34.5553 187.161 33.0444C187.111 31.6336 186.677 30.2632 185.905 29.0812C184.934 27.5626 183.634 26.2811 182.102 25.3311L172.974 19.2457C169.424 17.0296 167.649 14.172 167.649 10.6729C167.648 10.3147 167.666 9.95663 167.702 9.60031C167.779 8.30883 168.118 7.04652 168.699 5.8904C169.28 4.73429 170.09 3.7086 171.08 2.87593C173.058 1.14159 175.707 0.274414 179.029 0.274414C181.502 0.306259 183.971 0.486611 186.423 0.814494H189.739L189.047 8.6875H188.56C188.571 7.82789 188.384 6.97729 188.014 6.20163C187.643 5.42598 187.099 4.74611 186.423 4.21472C184.837 3.02718 182.887 2.42998 180.908 2.52602C178.124 2.52602 176.1 3.36276 174.822 5.04386C174.231 5.85168 173.911 6.82662 173.91 7.82793C173.885 8.75925 174.211 9.6659 174.822 10.3686C175.673 11.2622 176.646 12.0305 177.713 12.6506L187.731 19.1772C189.634 20.3723 191.258 21.9625 192.493 23.8402C193.793 25.7539 194.502 28.0077 194.532 30.3211C194.507 31.862 194.211 33.3864 193.657 34.8243C193.019 36.4845 192.034 37.9889 190.766 39.2363C189.286 40.6848 187.526 41.816 185.594 42.5604C183.37 43.4409 180.995 43.8776 178.603 43.846C176.226 43.8785 173.867 43.4229 171.673 42.5072C169.867 41.8032 168.26 40.6699 166.99 39.2054C165.721 37.7409 164.827 35.9892 164.386 34.1017C164.171 33.2255 164.064 32.3263 164.066 31.4241C164.106 28.304 165.224 25.2937 167.231 22.9045L167.733 23.3001Z" fill="#FED395"/>
<path d="M198.981 37.9658C199.425 37.9727 199.865 37.8885 200.274 37.7184C200.684 37.5483 201.054 37.2959 201.362 36.977C202.009 36.3505 202.386 35.4962 202.412 34.596V4.76991C202.382 4.19225 202.203 3.63215 201.893 3.14422C201.582 2.65629 201.15 2.25719 200.64 1.98583C200.132 1.70363 199.562 1.55447 198.981 1.55224H198.289V1.01977H218.827C220.048 1.00974 221.267 0.902912 222.471 0.700286C223.418 0.574233 224.35 0.357717 225.255 0.0537109V9.42525H224.715V8.78628C224.75 8.07869 224.645 7.37122 224.406 6.70427C224.167 6.03731 223.799 5.42395 223.323 4.89922C222.312 3.89424 220.945 3.32846 219.52 3.32462H210.468V18.9033H217.534C218.141 18.9048 218.743 18.7851 219.303 18.5513C219.863 18.3175 220.371 17.9743 220.797 17.5417C221.221 17.1143 221.553 16.6054 221.774 16.0458C221.995 15.4861 222.1 14.8874 222.083 14.286V13.7991H222.623V26.1906H222.083V25.757C222.126 24.9636 221.95 24.1737 221.573 23.4743C221.195 22.775 220.632 22.1934 219.946 21.7938C219.219 21.4033 218.412 21.1847 217.587 21.1549H210.468V36.2011H217.481C219.873 36.2705 222.206 35.4583 224.038 33.919C225.933 32.2169 227.3 30.0074 227.978 27.5522H228.511L226.046 38.4755H198.312V37.9354L198.981 37.9658Z" fill="#FED395"/>
<path d="M253.948 39.2275C247.056 39.2275 241.648 37.4881 237.723 34.0092C233.797 30.5304 231.835 25.7813 231.835 19.7618C231.835 13.7271 233.78 8.9703 237.669 5.49147C241.559 2.01265 246.896 0.270696 253.682 0.265625C258.854 0.265625 263.299 1.23168 267.016 3.1638L267.123 12.368H266.682C264.856 5.80589 260.695 2.5223 254.199 2.51723C252.292 2.43846 250.394 2.81074 248.659 3.6038C246.923 4.39687 245.399 5.58832 244.211 7.08129C241.767 10.124 240.545 14.2925 240.545 19.5868C240.545 24.8811 241.714 29.075 244.051 32.1684C245.14 33.6694 246.57 34.8897 248.223 35.7283C249.877 36.567 251.706 36.9998 253.56 36.9911C257.698 36.9911 260.857 35.954 263.038 33.8799C265.219 31.8058 266.74 28.1292 267.602 22.8501H268.036L268.568 32.0619C265.713 36.8592 260.84 39.2478 253.948 39.2275Z" fill="#FED395"/>
<path d="M288.064 3.37726H285.599V34.565C285.588 35.1654 285.741 35.7574 286.043 36.2765C286.345 36.7957 286.783 37.2219 287.311 37.5088C287.836 37.7937 288.425 37.9403 289.022 37.9348H289.722V38.4749H273.444V37.9348H274.136C274.725 37.9627 275.31 37.8293 275.829 37.5492C276.348 37.2691 276.78 36.8527 277.08 36.345C277.371 35.8385 277.538 35.2702 277.567 34.6867V4.92904C277.542 4.02853 277.165 3.1736 276.517 2.54813C276.21 2.22741 275.84 1.97342 275.43 1.80197C275.021 1.63053 274.58 1.54531 274.136 1.55164H273.444V1.01917H291.784C294.87 0.925475 297.919 1.71735 300.57 3.3012C301.797 4.06434 302.795 5.14441 303.46 6.42758C304.192 7.83578 304.561 9.40468 304.533 10.9916C304.549 12.5963 304.249 14.1884 303.65 15.6774C303.013 17.1648 301.995 18.4582 300.699 19.4275C299.262 20.5218 297.546 21.1888 295.747 21.3521C297.816 22.0316 299.636 23.6037 301.209 26.0682C305.063 32.2449 307.92 35.9215 309.781 37.0981C310.839 37.7038 312.039 38.0163 313.258 38.0033V38.5433H308.009C305.415 38.6222 302.831 38.1933 300.402 37.2806C298.328 36.4079 296.584 34.9007 295.42 32.9752C294.781 31.9407 293.959 30.3737 292.955 28.2894C291.951 26.2052 291.297 24.7066 290.977 23.8166C290.009 21.6715 288.794 20.4747 287.334 20.2263V19.6938H288.992C290.536 19.7141 292.039 19.2039 293.252 18.2485C294.484 17.2824 295.313 15.7154 295.739 13.5323C295.863 12.9517 295.935 12.361 295.952 11.7675C295.952 8.83639 295.364 6.72171 294.187 5.42348C293.616 4.78001 292.912 4.26747 292.125 3.92089C291.337 3.57431 290.484 3.40185 289.623 3.4153L288.064 3.37726Z" fill="#FED395"/>
<path d="M313.281 37.9658C313.725 37.9728 314.166 37.8887 314.577 37.7186C314.988 37.5486 315.36 37.2961 315.669 36.977C316.311 36.3474 316.684 35.4944 316.711 34.596V4.76991C316.683 4.19283 316.506 3.63293 316.196 3.14494C315.887 2.65696 315.456 2.25757 314.946 1.98583C314.436 1.70454 313.863 1.55548 313.281 1.55224H312.588V1.01977H333.127C334.348 1.01006 335.566 0.90323 336.77 0.700286C337.717 0.57521 338.649 0.358672 339.554 0.0537109V9.42525H339.022V8.78628C339.052 8.07666 338.942 7.36807 338.698 6.70107C338.454 6.03407 338.08 5.42177 337.599 4.89922C336.589 3.89284 335.222 3.32681 333.796 3.32462H324.744V18.9033H331.811C332.419 18.9058 333.022 18.7866 333.584 18.5528C334.145 18.319 334.655 17.9752 335.082 17.5417C335.504 17.1133 335.835 16.6042 336.056 16.0448C336.277 15.4854 336.383 14.8872 336.367 14.286V13.7991H336.9V26.1906H336.367V25.757C336.411 24.9627 336.233 24.1719 335.854 23.4723C335.476 22.7728 334.911 22.1918 334.222 21.7938C333.496 21.4025 332.689 21.1839 331.864 21.1549H324.744V36.2011H331.757C334.149 36.272 336.483 35.4596 338.314 33.919C340.212 32.2188 341.58 30.0086 342.255 27.5522H342.787L340.33 38.4755H312.588V37.9354L313.281 37.9658Z" fill="#FED395"/>
<path d="M366.034 3.21766V34.6488C366.059 35.5387 366.432 36.3834 367.071 37.0029C367.71 37.6224 368.566 37.9677 369.457 37.9654H370.134L370.187 38.5054H353.87V37.9654H354.57C355.002 37.969 355.431 37.886 355.831 37.7214C356.231 37.5568 356.593 37.3139 356.898 37.0069C357.534 36.4077 357.926 35.5953 358.001 34.7249V3.21766H350.767C350.046 3.19325 349.328 3.31551 348.656 3.57703C347.984 3.83855 347.372 4.23387 346.857 4.73901C346.369 5.26272 345.991 5.87797 345.742 6.54912C345.494 7.22027 345.382 7.93397 345.412 8.64889V9.28786H344.879V0C345.754 0.309502 346.659 0.526216 347.58 0.646575C348.776 0.850115 349.987 0.956955 351.2 0.966059H372.781C374.219 0.959295 375.652 0.816668 377.063 0.54008C377.751 0.402511 378.429 0.222133 379.094 0V9.31829H378.562V8.67932C378.594 7.96417 378.482 7.24988 378.234 6.57843C377.986 5.90699 377.606 5.29193 377.117 4.76944C376.602 4.2643 375.99 3.86897 375.318 3.60746C374.646 3.34594 373.928 3.22368 373.207 3.24809L366.034 3.21766Z" fill="#FED395"/>
<path d="M382.472 33.5227C382.406 31.2159 382.98 28.9359 384.13 26.9353H384.586C384.554 27.2207 384.536 27.5076 384.533 27.7948C384.523 28.9927 384.753 30.1805 385.209 31.2883C385.665 32.3961 386.338 33.4015 387.188 34.2454C388.953 36.0862 391.372 37.0066 394.445 37.0066C396.833 37.0066 398.697 36.4361 400.036 35.2951C400.684 34.7741 401.206 34.1121 401.56 33.3596C401.915 32.607 402.093 31.7835 402.082 30.9516C402.082 28.8471 400.655 27.0088 397.799 25.4367L388.466 19.2829C386.792 18.3957 385.409 17.0465 384.48 15.3958C383.698 13.9761 383.282 12.384 383.271 10.7633C383.271 7.41124 384.333 4.8224 386.458 2.99678C388.755 1.11663 391.662 0.144906 394.627 0.265946C397.063 0.300888 399.493 0.481236 401.907 0.806027H405.285L404.585 8.67903H404.052C404.079 7.82465 403.907 6.9757 403.549 6.19937C403.192 5.42305 402.658 4.74067 401.991 4.20625C400.417 3.01273 398.471 2.41454 396.499 2.51755C393.715 2.51755 391.699 3.37458 390.451 5.08864C389.818 5.87729 389.476 6.86098 389.485 7.87271C389.485 9.58677 390.735 11.1766 393.235 12.6422L403.459 19.2829C404.954 20.0543 406.2 21.233 407.053 22.6827C407.907 24.1323 408.333 25.7939 408.282 27.4753C408.282 31.2939 406.988 34.2124 404.402 36.2307C401.816 38.2491 398.38 39.2633 394.095 39.2734C391.823 39.2973 389.559 39.0002 387.371 38.3911C385.669 38.0065 384.096 37.186 382.806 36.0101C382.549 35.2074 382.435 34.3651 382.472 33.5227Z" fill="#FED395"/>
<path d="M447.723 0.266275C454.315 0.266275 459.564 2.01583 463.469 5.51494C467.374 9.01406 469.318 13.7632 469.303 19.7624C469.303 25.7565 467.358 30.5057 463.469 34.0099C459.579 37.5141 454.33 39.2611 447.723 39.2509C441.13 39.2509 435.884 37.5039 431.984 34.0099C428.085 30.5158 426.127 25.7667 426.112 19.7624C426.024 16.1302 426.943 12.5445 428.767 9.402C430.552 6.44252 433.179 4.08273 436.313 2.62437C439.888 0.984529 443.79 0.178218 447.723 0.266275ZM438.351 32.3744C439.447 33.8138 440.861 34.9806 442.481 35.7838C444.102 36.587 445.887 37.0049 447.696 37.0049C449.505 37.0049 451.29 36.587 452.911 35.7838C454.532 34.9806 455.945 33.8138 457.041 32.3744C459.343 29.2861 460.494 25.0821 460.494 19.7624C460.566 16.6511 460.05 13.5543 458.973 10.6343C458.098 8.24921 456.553 6.16769 454.523 4.64017C452.545 3.21775 450.159 2.47329 447.723 2.51788C445.905 2.46116 444.101 2.85435 442.471 3.6625C440.842 4.47065 439.437 5.66876 438.382 7.1504C436.079 10.2387 434.928 14.4428 434.928 19.7624C434.928 25.0821 436.069 29.2861 438.351 32.3744Z" fill="#FED395"/>
<path d="M484.539 3.32344V18.9021H491.606C492.213 18.9076 492.815 18.792 493.376 18.5622C493.938 18.3323 494.448 17.9927 494.877 17.5633C495.304 17.1336 495.638 16.621 495.859 16.0571C496.08 15.4933 496.184 14.8901 496.163 14.2848V13.798H496.695V26.1894H496.163V25.7558C496.179 25.1571 496.074 24.5613 495.855 24.0041C495.635 23.4469 495.305 22.9399 494.884 22.5136C494.463 22.0872 493.961 21.7504 493.407 21.5232C492.853 21.2961 492.258 21.1833 491.659 21.1917H484.539V34.5949C484.513 35.1978 484.661 35.7956 484.964 36.3173C485.268 36.8391 485.714 37.2629 486.251 37.5387C486.779 37.8226 487.37 37.9691 487.97 37.9647H488.609L488.662 38.5047H472.384V37.9647H473.076C473.521 37.9716 473.962 37.8875 474.373 37.7174C474.783 37.5474 475.155 37.295 475.465 36.9758C476.106 36.3463 476.479 35.4932 476.507 34.5949V4.76872C476.448 3.89562 476.056 3.07852 475.411 2.48669C475.104 2.18261 474.739 1.94263 474.338 1.78071C473.937 1.61878 473.508 1.53814 473.076 1.54346H472.384V1.01098H492.922C494.378 1.03867 495.832 0.903447 497.258 0.607823C497.966 0.462687 498.665 0.274708 499.35 0.0449219V9.09697H498.817V8.5645C498.854 7.87134 498.751 7.17792 498.516 6.52484C498.281 5.87176 497.918 5.27215 497.448 4.76112C496.959 4.2779 496.378 3.8987 495.738 3.64638C495.099 3.39406 494.415 3.27385 493.728 3.29301L484.539 3.32344Z" fill="#FED395"/>
</g>
<defs>
<clipPath id="clip0_602_2380">
<rect width="638.55" height="142.558" fill="white" transform="translate(0.445312)"/>
</clipPath>
</defs>
</svg>
