<svg width="630" height="188" viewBox="0 0 630 188" fill="none" xmlns="http://www.w3.org/2000/svg">
<path d="M607.72 65.3241H587.182C583.221 65.3183 579.337 66.4875 575.953 68.7033C572.788 66.0383 568.997 64.3719 565.004 63.8898L564.125 63.7847C563.328 63.6924 562.528 63.6448 561.726 63.642C556.773 63.6481 551.972 65.4852 548.127 68.846C544.7 66.5381 540.738 65.3175 536.696 65.3241H506.931C502.961 65.3154 499.067 66.493 495.681 68.7258C494.224 68.1101 492.717 67.5769 491.197 67.0738C493.603 64.8917 495.536 62.1692 496.861 59.0973C498.187 56.0255 498.872 52.6786 498.869 49.2915V43.1038C500.455 39.8119 501.283 36.157 501.282 32.448V23.4893C501.281 19.8696 500.497 16.2999 498.991 13.0637C497.485 9.82749 495.299 7.01402 492.607 4.84676C489.914 2.6795 486.789 1.21816 483.48 0.578841C480.172 -0.0604818 476.77 0.139824 473.546 1.16385H454.967C452.239 1.1662 449.537 1.7242 447.002 2.8084C442.268 1.18458 437.325 0.378597 432.357 0.420414C425.491 0.329612 418.697 1.92173 412.487 5.07624C411.108 5.79047 409.771 6.5955 408.484 7.48675C404.459 3.29299 399.077 0.949992 393.476 0.953583H391.642C389.008 0.61733 386.358 0.43933 383.705 0.420414C381.152 0.414987 378.606 0.704505 376.111 1.284C371.969 -0.155238 367.521 -0.215433 363.348 1.11128H344.183C341.334 0.210406 338.342 -0.0452764 335.396 0.360341C334.652 0.276436 333.905 0.233825 333.157 0.23268C331.09 0.225504 329.032 0.539116 327.048 1.16385H308.462C305.712 1.15853 302.987 1.72193 300.435 2.82342C296.846 1.69676 293.125 1.13773 289.388 1.16385H272.573C270.655 1.16268 268.746 1.43797 266.896 1.98237C262.823 0.92365 258.645 0.399192 254.454 0.420414C249.138 0.368836 243.851 1.27495 238.812 3.10127C236.309 1.61677 233.558 0.68121 230.717 0.348662C227.876 0.0161139 225.003 0.293181 222.262 1.16385H203.69C202.55 1.16347 201.412 1.25888 200.287 1.4492C198.821 1.12199 197.327 0.955928 195.83 0.953583H194.045C191.378 0.615308 188.696 0.437308 186.011 0.420414C175.55 0.420414 168.527 4.92605 164.496 8.74082C158.508 14.3754 154.802 22.3059 154.167 30.841C154.076 31.8773 154.034 32.9211 154.034 33.9574C154.034 35.4064 154.123 36.8538 154.299 38.2903C151.934 43.3047 150.699 48.8487 150.694 54.473C150.696 57.2573 151.013 60.031 151.635 62.7333L151.677 62.9061C151.921 63.9348 152.221 64.9261 152.535 65.9098C149.525 66.6732 146.702 68.1217 144.255 70.1579C141.808 72.194 139.795 74.7707 138.35 77.7146L137.966 76.8135C137.862 76.5656 137.75 76.3103 137.631 76.0625C139.767 72.3837 140.896 68.1307 140.888 63.7922V62.7408C140.888 57.035 138.942 51.5279 135.419 47.2654C131.896 43.003 127.043 40.2821 121.779 39.6194C119.586 39.3583 117.381 39.2355 115.175 39.2515C106.862 39.2515 94.3153 41.8122 81.741 54.0074C76.4342 59.2494 72.0493 65.4794 68.7971 72.3979C66.7848 70.1566 64.3735 68.375 61.7074 67.1596C59.0412 65.9442 56.1749 65.3199 53.2797 65.3241H22.2799C16.546 65.3241 11.0469 67.7767 6.99243 72.1424C2.93795 76.5081 0.660171 82.4292 0.660171 88.6032V89.6545C0.655152 94.3121 1.94777 98.8642 4.37092 102.722C6.79407 106.58 10.2363 109.567 14.2527 111.297L41.2703 173.992C43.0006 178.026 45.7665 181.441 49.2415 183.837C52.7165 186.232 56.7555 187.506 60.8815 187.509H61.7602C65.847 187.517 69.8511 186.269 73.3023 183.912C75.7538 184.909 78.3533 185.418 80.9738 185.414H101.833C106.005 185.413 110.087 184.109 113.585 181.66C117.079 184.11 121.159 185.414 125.329 185.414H207.972C209.477 185.415 210.977 185.246 212.449 184.911C213.926 185.247 215.431 185.415 216.941 185.414H267.433C269.077 185.412 270.715 185.208 272.315 184.806C273.932 185.211 275.586 185.415 277.246 185.414H306.823C310.775 185.408 314.649 184.236 318.026 182.025C321.402 179.814 324.151 176.649 325.974 172.874L333.324 180.383C337.345 184.51 342.687 186.811 348.242 186.811H349.114C352.021 186.811 354.898 186.181 357.573 184.956C358.869 185.214 360.183 185.342 361.5 185.339H391.126C395.395 185.345 399.57 183.986 403.121 181.434C409.335 184.063 416.33 185.339 424.469 185.339H434.016C437.774 185.345 441.467 184.292 444.729 182.283C452.766 185.388 461.255 186.914 469.794 186.788C487.229 186.788 501.763 181.314 512.907 170.531C514.38 169.115 515.777 167.611 517.092 166.025L519.121 171.957C520.648 176.428 523.412 180.287 527.04 183.013C530.668 185.739 534.985 187.201 539.409 187.201H540.385C544.466 187.209 548.466 185.972 551.921 183.635C555.377 181.297 558.147 177.954 559.913 173.992C561.676 177.948 564.441 181.287 567.89 183.625C571.338 185.962 575.33 187.202 579.405 187.201H580.375C586.109 187.201 591.608 184.749 595.662 180.383C599.717 176.018 601.994 170.096 601.994 163.922V162.984C602.059 161.703 602.294 160.438 602.692 159.229L616.689 110.854C620.479 109.009 623.694 106.026 625.949 102.264C628.204 98.5008 629.403 94.1176 629.403 89.6395V88.5882C629.401 85.5267 628.838 82.4957 627.747 79.6686C626.656 76.8416 625.057 74.2741 623.043 72.1131C621.029 69.9522 618.639 68.2402 616.01 67.0752C613.38 65.9103 610.563 65.3152 607.72 65.3241V65.3241ZM202.825 119.332C202.281 119.587 201.751 119.872 201.228 120.173V107.196C201.486 106.956 201.737 106.708 201.981 106.445C202.26 106.731 202.539 107.009 202.825 107.272V119.332ZM208.628 90.9161L208.53 91.9674C208.018 97.4813 205.696 102.618 201.981 106.453C199.872 104.285 198.193 101.678 197.048 98.7906C195.903 95.9028 195.316 92.7945 195.321 89.6545V88.6032C195.319 85.4536 195.911 82.3363 197.062 79.4408C198.213 76.5453 199.898 73.932 202.016 71.7596C202.4 72.1426 202.776 72.5556 203.139 72.9837C205.909 76.2726 207.744 80.3491 208.425 84.7283V84.7283C208.46 84.9461 208.488 85.1714 208.516 85.3967C208.544 85.622 208.579 85.8923 208.6 86.1476C208.621 86.4029 208.635 86.4931 208.649 86.6658C208.649 86.6658 208.649 86.6808 208.649 86.7108C208.649 87.0262 208.697 87.3341 208.704 87.6495C208.755 88.7389 208.729 89.8308 208.628 90.9161V90.9161ZM470.993 136.528C468.538 136.528 467.199 129.439 467.297 125.016C467.422 119.76 468.524 114.586 471.098 114.571C473.671 114.556 474.717 119.519 474.696 125.084C474.675 130.198 473.629 136.528 470.993 136.528Z" fill="#0D1838"/>
<path d="M115.733 62.1476C117.1 62.1341 118.467 62.2018 119.827 62.3504V63.4017C116.149 63.4934 112.552 64.5779 109.365 66.5556C106.055 68.7284 103.698 70.7309 102.294 72.5632C100.899 74.418 99.797 75.9274 98.9811 77.0688C98.0832 78.3788 97.2856 79.7651 96.5959 81.214C95.3592 83.672 94.2224 86.0876 93.1856 88.4605L67.0606 149.962C64.0664 156.896 62.474 161.479 62.2834 163.712H61.4046L31.9042 95.204C31.0516 93.3953 29.775 91.8577 28.201 90.7434C26.8392 89.7795 25.2485 89.2581 23.619 89.2415H22.8379V88.1902H53.8377V89.2415H53.0566C52.4629 89.191 51.8664 89.2926 51.3161 89.538C50.7658 89.7834 50.2772 90.1655 49.8904 90.6533C49.2805 91.3987 48.9196 92.3424 48.8652 93.3341C48.869 94.1898 49.0008 95.0393 49.2558 95.8498L65.8262 139.201L86.0023 88.5056C89.0569 80.7359 92.6323 74.8936 96.7284 70.9787C102.768 65.0913 109.103 62.1476 115.733 62.1476Z" fill="#FED395"/>
<path d="M156.092 160.596H156.97V161.647H125.873V160.596H126.752C127.346 160.647 127.943 160.544 128.494 160.298C129.044 160.051 129.533 159.666 129.918 159.176C130.527 158.434 130.888 157.492 130.943 156.503C130.936 155.636 130.77 154.778 130.455 153.98L125.678 141.071H102.865L97.8022 153.98C97.4933 154.799 97.3278 155.672 97.314 156.556C97.3771 157.526 97.7349 158.447 98.3323 159.176C98.7348 159.674 99.241 160.062 99.8095 160.309C100.378 160.555 100.993 160.654 101.603 160.596H102.384V161.647H81.5596V160.596H82.4313C84.0273 160.558 85.5812 160.037 86.9157 159.094C88.4991 158.014 89.7794 156.49 90.6189 154.686L113.138 99.7922C116.193 92.8685 117.82 88.2853 118.02 86.0425H118.899L147.813 154.506C148.641 156.361 149.921 157.939 151.517 159.071C152.874 160.041 154.462 160.571 156.092 160.596ZM104.525 136.663H124.018L114.568 110.846L104.525 136.663Z" fill="#FED395"/>
<path d="M159.307 160.596C160.115 160.608 160.917 160.442 161.663 160.108C162.409 159.773 163.084 159.277 163.645 158.651C164.819 157.42 165.5 155.744 165.542 153.98V95.8347C165.5 94.0709 164.819 92.3945 163.645 91.1639C163.082 90.5398 162.408 90.0461 161.662 89.7129C160.916 89.3798 160.114 89.2142 159.307 89.2265H158.038V88.1752H187.671L187.573 89.2265H186.401C185.588 89.2164 184.781 89.3827 184.028 89.7156C183.276 90.0484 182.593 90.541 182.021 91.1639C181.427 91.76 180.954 92.4835 180.635 93.288C180.315 94.0924 180.156 94.9599 180.166 95.8347V157.104H192.936C197.678 157.104 201.658 155.635 204.876 152.696C208.093 149.757 210.48 145.592 212.038 140.2H213.014L208.53 161.617H158.038V160.566L159.307 160.596Z" fill="#FED395"/>
<path d="M211.403 99.2815L211.264 101.159C210.511 111.379 207.08 120.42 202.016 127.051C196.214 119.497 192.615 108.841 192.615 97.0137V95.1288C192.615 83.294 196.249 72.6007 202.065 65.0237C202.609 65.707 203.139 66.4429 203.655 67.2089C207.698 73.4574 210.26 80.676 211.118 88.2352C211.18 88.6257 211.215 88.9861 211.257 89.4292C211.299 89.8723 211.348 90.3153 211.376 90.7584C211.376 91.0662 211.424 91.3741 211.445 91.682C211.453 91.7089 211.453 91.7377 211.445 91.7646C211.48 92.3278 211.501 92.876 211.522 93.4467C211.59 95.3925 211.55 97.3408 211.403 99.2815V99.2815Z" fill="#0D1838"/>
<path d="M218.768 160.596C219.576 160.608 220.378 160.442 221.124 160.108C221.87 159.773 222.545 159.277 223.106 158.651C224.28 157.42 224.961 155.744 225.003 153.98V95.5268C224.95 94.3955 224.626 93.2981 224.063 92.3414C223.499 91.3847 222.715 90.6014 221.788 90.0675C220.86 89.5251 219.823 89.2387 218.768 89.234H217.499V88.1827H254.831C257.054 88.1634 259.272 87.9524 261.463 87.5519C263.185 87.3085 264.88 86.886 266.526 86.2903V104.658H265.557V103.404C265.615 102.014 265.417 100.625 264.972 99.3175C264.528 98.0104 263.848 96.8113 262.97 95.7897C261.116 93.8068 258.609 92.6945 255.996 92.6958H239.627V123.236H252.495C253.6 123.24 254.696 123.005 255.716 122.546C256.737 122.087 257.662 121.413 258.436 120.563C259.204 119.729 259.808 118.736 260.21 117.644C260.613 116.553 260.807 115.384 260.78 114.21V113.264H261.756V137.504H260.794V136.663C260.794 133.159 259.494 130.571 256.895 128.899C255.576 128.124 254.108 127.692 252.606 127.637H239.627V157.104H252.425C257.167 157.104 261.147 155.635 264.364 152.696C267.582 149.757 269.969 145.592 271.527 140.2H272.503L268.019 161.617H217.526V160.566L218.768 160.596Z" fill="#FED395"/>
<path d="M354.553 89.2265C353.778 89.216 353.008 89.3727 352.289 89.6874C351.571 90.002 350.918 90.4683 350.369 91.0588C349.803 91.6347 349.349 92.3252 349.032 93.0907C348.715 93.8561 348.541 94.6815 348.521 95.5194V149.677C348.465 153.653 348.759 157.626 349.4 161.542L349.692 163.111H348.814L299.591 112.626V154.295C299.579 155.129 299.729 155.956 300.03 156.724C300.331 157.492 300.778 158.184 301.341 158.756C301.889 159.348 302.542 159.816 303.26 160.132C303.979 160.448 304.749 160.606 305.526 160.596H307.381V161.647H277.838V160.596H279.624C280.417 160.614 281.205 160.461 281.942 160.145C282.678 159.828 283.349 159.356 283.913 158.756C284.485 158.169 284.938 157.46 285.24 156.673C285.543 155.887 285.69 155.041 285.67 154.19V99.7171C285.731 95.8481 285.436 91.982 284.792 88.1752L284.596 86.5982H285.475L334.698 137.084V95.6245C334.685 94.7699 334.514 93.9266 334.197 93.1431C333.88 92.3596 333.422 91.6512 332.85 91.0588C332.301 90.4683 331.648 90.002 330.93 89.6874C330.211 89.3727 329.441 89.216 328.666 89.2265H326.908V88.1752H356.443V89.2265H354.553Z" fill="#FED395"/>
<path d="M388.664 92.7934H384.186V153.98C384.167 155.157 384.447 156.318 384.997 157.336C385.546 158.354 386.344 159.19 387.304 159.755C388.261 160.312 389.333 160.602 390.421 160.596H391.691V161.647H362.058V160.596H363.313C364.398 160.635 365.472 160.353 366.418 159.779C367.364 159.206 368.145 158.363 368.676 157.344C369.214 156.355 369.527 155.244 369.59 154.1V95.8347C369.546 94.0698 368.863 92.3933 367.686 91.1639C367.124 90.5388 366.449 90.0443 365.703 89.7111C364.957 89.3778 364.155 89.2129 363.348 89.2265H362.058V88.1752H395.491C401.796 88.1752 407.124 89.6445 411.476 92.5832C413.712 94.0835 415.531 96.2056 416.741 98.7259C418.068 101.479 418.737 104.545 418.687 107.647C418.718 110.79 418.173 113.908 417.083 116.823C415.927 119.739 414.077 122.275 411.72 124.175C409.101 126.312 405.976 127.613 402.703 127.93C406.469 129.257 409.784 132.335 412.648 137.166C419.664 149.272 424.862 156.478 428.242 158.786C430.17 159.978 432.358 160.595 434.581 160.573V161.625H425.027C419.503 161.625 414.889 160.801 411.183 159.154C407.407 157.441 404.233 154.484 402.117 150.706C400.954 148.703 399.46 145.642 397.632 141.522C395.805 137.402 394.594 134.488 393.999 132.781C392.251 128.586 390.042 126.243 387.374 125.752V124.701H390.393C393.217 124.754 395.97 123.75 398.183 121.862C400.429 119.98 401.94 116.901 402.717 112.626C402.941 111.486 403.072 110.328 403.107 109.164C403.107 103.427 402.035 99.2816 399.892 96.7284C398.851 95.4753 397.573 94.4761 396.144 93.7975C394.715 93.1189 393.168 92.7766 391.607 92.7934H388.664Z" fill="#FED395"/>
<path d="M470.351 86.7033C482.375 86.7033 491.927 90.1326 499.008 96.9912C506.089 103.85 509.632 113.156 509.637 124.911C509.637 136.666 506.094 145.972 499.008 152.831C491.922 159.69 482.37 163.116 470.351 163.111C458.328 163.111 448.776 159.685 441.695 152.831C434.614 145.977 431.071 136.671 431.066 124.911C431.066 117.141 432.675 110.383 435.892 104.636C439.132 98.8431 443.9 94.2209 449.59 91.3591C455.504 88.2552 462.424 86.7033 470.351 86.7033ZM453.342 149.594C457.526 155.647 463.196 158.673 470.351 158.673C477.507 158.673 483.177 155.647 487.361 149.594C491.546 143.542 493.638 135.304 493.638 124.881C493.638 118.027 492.708 112.045 490.848 106.934C488.989 101.822 486.292 97.9023 482.758 95.1739C479.148 92.4125 474.807 90.9774 470.379 91.0813C463.233 91.0813 457.563 94.1076 453.37 100.16C449.176 106.213 447.084 114.453 447.093 124.881C447.065 135.349 449.148 143.587 453.342 149.594Z" fill="#FED395"/>
<path d="M608.278 89.2265H607.407C605.678 89.2701 603.992 89.8121 602.525 90.7959C600.893 91.8151 599.636 93.4052 598.961 95.3015L582.586 151.877C581.533 155.337 580.966 158.946 580.905 162.586V163.532H579.929L558.679 112.836L543.28 151.885C541.851 155.583 541.057 159.529 540.936 163.532H539.96L516.667 95.3091C515.971 93.5298 514.809 92.0071 513.323 90.927C511.837 89.8468 510.09 89.2559 508.298 89.2265H507.517V88.1751H537.247V89.2265H536.341C535.762 89.1838 535.182 89.2895 534.648 89.5349C534.115 89.7803 533.643 90.1584 533.272 90.6382C532.662 91.3837 532.301 92.3273 532.247 93.3191C532.245 94.141 532.377 94.9569 532.637 95.7296L544.64 132.255L562.27 86.5156L563.149 86.6207L582.544 132.698L592.308 95.7521C592.505 94.9664 592.604 94.1556 592.601 93.3416C592.558 92.3659 592.233 91.4289 591.673 90.6608C591.312 90.168 590.842 89.7806 590.306 89.534C589.77 89.2873 589.185 89.1894 588.604 89.249H587.726V88.1977H608.292L608.278 89.2265Z" fill="#FED395"/>
<path d="M176.212 46.0024C174.961 48.0658 174.282 50.4698 174.252 52.9336C174.312 55.0378 174.928 57.08 176.027 58.8209C177.127 60.5619 178.664 61.9294 180.459 62.7634C181.976 63.4456 183.607 63.788 185.25 63.7696C186.858 63.7982 188.45 63.4363 189.909 62.7108C191.185 62.1227 192.263 61.1298 193.001 59.8645C193.738 58.5993 194.1 57.1219 194.038 55.6294C193.994 54.2354 193.593 52.8814 192.88 51.7171C191.993 50.2145 190.801 48.9486 189.393 48.0149L181.024 42.0074C177.77 39.8247 176.142 37.0062 176.142 33.5518C176.142 33.1989 176.142 32.846 176.191 32.493C176.254 31.2259 176.554 29.9855 177.073 28.8461C177.592 27.7068 178.319 26.6919 179.211 25.8622C181.033 24.1501 183.465 23.294 186.506 23.294C188.771 23.3257 191.032 23.5038 193.278 23.8272H196.325L195.684 31.5919H195.244C195.26 30.7514 195.097 29.9181 194.768 29.1555C194.44 28.393 193.954 27.7212 193.347 27.1914C191.89 26.0016 190.09 25.4009 188.263 25.4943C185.711 25.4943 183.851 26.3228 182.684 27.9799C182.14 28.7764 181.847 29.7395 181.847 30.7283C181.825 31.6477 182.123 32.5427 182.684 33.2364C183.461 34.1222 184.354 34.8811 185.334 35.4893L194.512 41.9398C196.261 43.1173 197.752 44.6875 198.885 46.5431C200.072 48.4345 200.719 50.6585 200.747 52.9411C200.728 54.4682 200.454 55.9791 199.938 57.4017C199.365 59.0296 198.476 60.5068 197.33 61.7346C195.975 63.1637 194.363 64.2804 192.594 65.0162C190.554 65.8811 188.377 66.3121 186.185 66.2853C184.003 66.318 181.838 65.8682 179.825 64.9636C178.169 64.2669 176.697 63.1466 175.534 61.6995C174.371 60.2524 173.553 58.5221 173.15 56.6582C172.952 55.7934 172.854 54.9056 172.858 54.0149C172.895 50.9388 173.918 47.9708 175.752 45.6119L176.212 46.0024Z" fill="#FED395"/>
<path d="M204.882 60.488C205.296 60.4942 205.705 60.4079 206.086 60.2347C206.467 60.0615 206.81 59.8051 207.093 59.4818C207.684 58.8626 208.027 58.0191 208.049 57.1313V27.7095C208.021 27.1327 207.854 26.5737 207.564 26.0878C207.274 25.6018 206.871 25.2057 206.396 24.9386C205.926 24.6664 205.402 24.522 204.869 24.518H204.234V23.9924H223.064C224.184 23.9838 225.301 23.8758 226.405 23.6695C227.272 23.5475 228.127 23.3363 228.957 23.0387V32.3128H228.469V31.697C228.498 30.9963 228.398 30.2963 228.174 29.6377C227.95 28.979 227.607 28.3746 227.165 27.8597C226.238 26.8669 224.985 26.306 223.678 26.2978H215.392V41.6845H221.871C222.429 41.687 222.982 41.5694 223.497 41.3385C224.012 41.1077 224.479 40.7683 224.87 40.3403C225.256 39.9192 225.558 39.4191 225.761 38.8696C225.963 38.32 226.061 37.7324 226.049 37.1413V36.6607H226.537V48.8785H226.049V48.4505C226.089 47.6662 225.927 46.8852 225.58 46.1945C225.233 45.5037 224.714 44.9303 224.082 44.5381C223.417 44.1482 222.677 43.9321 221.92 43.9073H215.392V58.7308H221.823C224.017 58.7956 226.157 57.9944 227.841 56.478C229.576 54.797 230.827 52.6157 231.447 50.1926H231.935L229.682 60.9761H204.248V60.443L204.882 60.488Z" fill="#FED395"/>
<path d="M255.263 61.7346C248.945 61.7346 243.984 60.0149 240.381 56.5756C236.777 53.1363 234.98 48.4505 234.99 42.5181C234.99 36.5656 236.773 31.8697 240.339 28.4304C243.905 24.9911 248.787 23.2715 254.985 23.2715C259.732 23.2715 263.807 24.2227 267.21 26.1251L267.308 35.2189H266.917C265.253 28.7408 261.44 25.4868 255.48 25.4567C251.616 25.4567 248.564 26.9586 246.323 29.9624C244.082 32.9661 242.961 37.0813 242.961 42.3078C242.961 47.5193 244.033 51.6595 246.176 54.7283C247.175 56.2068 248.486 57.4093 250 58.2369C251.514 59.0645 253.189 59.4937 254.887 59.4893C258.69 59.4893 261.587 58.4655 263.577 56.4179C265.567 54.3704 266.975 50.7408 267.803 45.5293H268.193L268.682 54.6232C266.05 59.3641 261.577 61.7346 255.263 61.7346Z" fill="#FED395"/>
<path d="M286.535 26.3354H284.275V57.1614C284.268 57.7535 284.41 58.3366 284.686 58.8485C284.963 59.3604 285.363 59.7817 285.845 60.0675C286.329 60.3478 286.871 60.4924 287.421 60.4881H288.055V61.0212H273.131V60.4881H273.772C274.319 60.5089 274.86 60.3671 275.336 60.0783C275.812 59.7894 276.205 59.3648 276.471 58.851C276.732 58.3488 276.883 57.7887 276.911 57.214V27.8748C276.889 26.985 276.546 26.1392 275.955 25.5168C275.672 25.2034 275.332 24.9552 274.957 24.7874C274.582 24.6196 274.179 24.5356 273.772 24.5406H273.131V24.0149H289.973C292.8 23.926 295.592 24.7075 298.021 26.2678C299.149 27.0236 300.067 28.0923 300.679 29.3616C301.344 30.7538 301.68 32.3017 301.655 33.8673C301.673 35.4517 301.398 37.0242 300.846 38.4931C300.266 39.96 299.334 41.2349 298.147 42.1877C296.83 43.2709 295.257 43.9321 293.607 44.0951C295.504 44.7609 297.173 46.3103 298.614 48.7434C302.152 54.841 304.77 58.473 306.467 59.6395C307.439 60.2388 308.541 60.5474 309.661 60.5331V61.0663H304.849C302.471 61.143 300.102 60.7196 297.875 59.8197C295.976 58.9568 294.38 57.469 293.314 55.5694C292.488 54.0698 291.734 52.5258 291.054 50.9436C290.124 48.881 289.518 47.4092 289.234 46.5281C288.355 44.4105 287.242 43.229 285.893 42.9837V42.458H287.421C288.835 42.4773 290.212 41.9707 291.319 41.0237C292.449 40.0775 293.209 38.5231 293.607 36.3754C293.72 35.8022 293.786 35.2191 293.802 34.6332C293.802 31.7421 293.258 29.6545 292.184 28.3629C291.656 27.733 291.01 27.2307 290.289 26.889C289.568 26.5473 288.788 26.3739 288 26.3804L286.535 26.3354Z" fill="#FED395"/>
<path d="M309.661 60.488C310.068 60.4948 310.471 60.4116 310.847 60.2437C311.222 60.0758 311.562 59.8267 311.844 59.5118C312.438 58.8945 312.781 58.0498 312.799 57.1614V27.7095C312.777 27.1361 312.615 26.5791 312.332 26.0932C312.048 25.6073 311.651 25.2094 311.182 24.9386C310.715 24.6656 310.192 24.5211 309.661 24.518H309.02V23.9924H327.85C328.967 23.9838 330.082 23.8758 331.183 23.6695C332.051 23.5485 332.906 23.3372 333.736 23.0387V32.3128H333.248V31.697C333.279 30.9925 333.179 30.2884 332.952 29.6266C332.726 28.9648 332.378 28.3588 331.929 27.8447C331.002 26.8519 329.75 26.291 328.442 26.2828H320.164V41.6695H326.65C327.207 41.671 327.758 41.5529 328.272 41.3221C328.786 41.0913 329.251 40.7524 329.642 40.3253C330.029 39.9052 330.332 39.4053 330.535 38.8555C330.737 38.3057 330.835 37.7176 330.821 37.1263V36.6457H331.309V48.8635H330.821V48.4355C330.861 47.6512 330.699 46.8702 330.352 46.1795C330.004 45.4887 329.486 44.9153 328.854 44.5231C328.191 44.1343 327.453 43.9182 326.699 43.8923H320.164V58.7308H326.601C328.793 58.7959 330.932 57.9945 332.613 56.478C334.35 54.7991 335.602 52.6171 336.219 50.1926H336.714L334.454 60.9761H309.02V60.443L309.661 60.488Z" fill="#FED395"/>
<path d="M358.02 26.1776V57.229C358.039 58.1106 358.383 58.9479 358.975 59.5569C359.263 59.8637 359.605 60.1055 359.982 60.268C360.358 60.4305 360.76 60.5104 361.165 60.5031H361.751L361.8 61.0362H346.875V60.5031H347.51C347.907 60.5072 348.302 60.4256 348.669 60.2631C349.037 60.1006 349.371 59.8605 349.651 59.5569C350.235 58.9668 350.593 58.1634 350.655 57.3041V26.1776H344.03C343.371 26.151 342.715 26.2734 342.103 26.5368C341.491 26.8001 340.937 27.1987 340.477 27.7067C340.017 28.2148 339.661 28.821 339.432 29.4863C339.203 30.1516 339.107 30.8612 339.148 31.5694V32.2077H338.653V23.0087C339.458 23.3115 340.29 23.5229 341.136 23.6395C342.23 23.8467 343.338 23.9547 344.448 23.9624H364.234C365.552 23.9578 366.868 23.8145 368.16 23.5343C368.793 23.404 369.418 23.2284 370.029 23.0087V32.2077H369.534V31.5694C369.576 30.8612 369.479 30.1516 369.25 29.4863C369.021 28.821 368.665 28.2148 368.205 27.7067C367.745 27.1987 367.191 26.8001 366.579 26.5368C365.967 26.2734 365.311 26.151 364.652 26.1776H358.02Z" fill="#FED395"/>
<path d="M373.077 56.1025C373.015 53.8251 373.541 51.5739 374.597 49.5994H375.043C375.01 49.8808 374.993 50.1643 374.995 50.448C374.987 51.6296 375.197 52.8011 375.614 53.8944C376.031 54.9876 376.645 55.9807 377.421 56.8159C379.049 58.6332 381.267 59.5418 384.075 59.5418C386.272 59.5418 387.98 58.9711 389.208 57.8447C389.796 57.3285 390.268 56.6748 390.587 55.9332C390.906 55.1916 391.064 54.3815 391.049 53.5644C391.049 51.4818 389.74 49.667 387.122 48.12L378.579 42.0374C377.047 41.1587 375.778 39.8309 374.918 38.2077C374.208 36.8034 373.83 35.233 373.816 33.6344C373.816 30.3253 374.79 27.7696 376.738 25.9673C378.845 24.1089 381.514 23.1494 384.235 23.2715C386.47 23.3059 388.701 23.484 390.916 23.8046H393.999L393.364 31.5694H392.869C392.893 30.7323 392.735 29.9008 392.408 29.1409C392.081 28.381 391.594 27.7135 390.986 27.1914C389.545 26.0148 387.764 25.4244 385.958 25.5243C383.405 25.5243 381.55 26.3653 380.378 28.0625C379.8 28.8428 379.488 29.8127 379.493 30.8109C379.493 32.5005 380.644 34.07 382.931 35.5118L392.311 42.0675C393.687 42.8192 394.838 43.9746 395.63 45.4003C396.422 46.8261 396.824 48.464 396.789 50.1251C396.789 53.8998 395.603 56.7809 393.232 58.7684C390.861 60.7559 387.711 61.7571 383.782 61.7721C381.699 61.7951 379.624 61.5019 377.617 60.901C376.07 60.5174 374.643 59.7074 373.474 58.5506C373.208 57.7665 373.073 56.9375 373.077 56.1025Z" fill="#FED395"/>
<path d="M432.894 23.2715C438.938 23.2715 443.748 24.9987 447.323 28.453C450.899 31.9073 452.684 36.5957 452.679 42.5181C452.679 48.4355 450.894 53.1213 447.323 56.5756C443.752 60.03 438.943 61.7496 432.894 61.7346C426.85 61.7346 422.037 60.0074 418.457 56.5531C414.877 53.0988 413.094 48.4129 413.108 42.4955C413.028 38.9085 413.868 35.3671 415.535 32.2602C417.165 29.3424 419.567 27.0152 422.433 25.5769C425.712 23.962 429.289 23.1736 432.894 23.2715ZM424.323 54.9761C425.327 56.3971 426.623 57.549 428.109 58.3419C429.595 59.1348 431.232 59.5474 432.89 59.5474C434.549 59.5474 436.185 59.1348 437.671 58.3419C439.157 57.549 440.453 56.3971 441.458 54.9761C443.573 51.9273 444.629 47.7771 444.624 42.5256C444.69 39.4541 444.217 36.3967 443.229 33.5143C442.431 31.1573 441.017 29.0995 439.156 27.5894C437.337 26.2005 435.151 25.479 432.922 25.5318C431.254 25.4752 429.599 25.8631 428.103 26.6609C426.608 27.4587 425.319 28.6418 424.35 30.105C422.244 33.1538 421.189 37.304 421.184 42.5556C421.18 47.8072 422.226 51.9474 424.323 54.9761Z" fill="#FED395"/>
<path d="M466.669 26.2828V41.6695H473.155C474.275 41.6726 475.351 41.1974 476.147 40.3478C476.537 39.9259 476.843 39.4224 477.046 38.8684C477.248 38.3143 477.344 37.7215 477.325 37.1263V36.6457H477.814V48.8635H477.325V48.4355C477.346 47.8417 477.255 47.2496 477.056 46.6951C476.858 46.1407 476.557 45.6356 476.171 45.2105C475.785 44.7855 475.323 44.4494 474.813 44.2228C474.303 43.9961 473.756 43.8837 473.204 43.8923H466.669V57.1614C466.647 57.7572 466.783 58.3475 467.063 58.8625C467.342 59.3775 467.752 59.7956 468.245 60.0675C468.727 60.3487 469.267 60.4934 469.814 60.488H470.4L470.449 61.0212H455.524V60.488H456.166C456.573 60.4948 456.976 60.4116 457.352 60.2437C457.727 60.0758 458.067 59.8267 458.349 59.5118C458.943 58.8945 459.286 58.0498 459.304 57.1614V27.7095C459.251 26.8476 458.891 26.041 458.3 25.4567C457.73 24.8571 456.963 24.525 456.166 24.5331H455.524V24.0074H474.354C475.689 24.0347 477.023 23.9012 478.33 23.6094C478.977 23.4666 479.615 23.281 480.241 23.0537V31.9974H479.752V31.4642C479.786 30.7799 479.693 30.0951 479.477 29.4502C479.262 28.8054 478.928 28.2136 478.497 27.7095C478.049 27.2315 477.516 26.856 476.93 26.6056C476.344 26.3553 475.717 26.2352 475.087 26.2527L466.669 26.2828Z" fill="#FED395"/>
</svg>
